# xmcd
#
# Track frame offsets:
#	150
#	15218
#	32208
#	47313
#	64992
#	79882
#	100842
#	118772
#	136313
#	152485
#	168552
#	184157
#	202762
#	219380
#	231891
#	248688
#	266886
#	281605
#
# Disc length: 3947 seconds
#
# Revision: 0
# Processed by: cddbd v1.5.2PL0 Copyright (c) Steve Scherf et al.
# Submitted via: EasyCDDAExtractor 12.0.7.1
#
DISCID=f20f6912
DTITLE=Сергей Любавин - Аллея шансона
DYEAR=2011
DGENRE=Chanson
TTITLE0=За той волной
TTITLE1=Украду тебя
TTITLE2=Чувства
TTITLE3=Звезда ненаглядная
TTITLE4=Последняя любовь
TTITLE5=Эта женщина
TTITLE6=Рейс 9208
TTITLE7=Цветок
TTITLE8=Волчонок
TTITLE9=Кружится снег
TTITLE10=Караван
TTITLE11=Прощание с Айседорой
TTITLE12=Любовь моя
TTITLE13=Дочка
TTITLE14=Казанская осенняя
TTITLE15=Брату
TTITLE16=Мадонна
TTITLE17=Сон
EXTD=
EXTT0=
EXTT1=
EXTT2=
EXTT3=
EXTT4=
EXTT5=
EXTT6=
EXTT7=
EXTT8=
EXTT9=
EXTT10=
EXTT11=
EXTT12=
EXTT13=
EXTT14=
EXTT15=
EXTT16=
EXTT17=
PLAYORDER=
